<?xml version="1.0" encoding="UTF-8" standalone="no"?>
<svg
   id="Layer_2"
   data-name="Layer 2"
   viewBox="0 0 256 256"
   version="1.1"
   sodipodi:docname="urbit_app_authenticator.svg"
   width="256"
   height="256"
   xml:space="preserve"
   xmlns:inkscape="http://www.inkscape.org/namespaces/inkscape"
   xmlns:sodipodi="http://sodipodi.sourceforge.net/DTD/sodipodi-0.dtd"
   xmlns="http://www.w3.org/2000/svg"
   xmlns:svg="http://www.w3.org/2000/svg"><sodipodi:namedview
     id="namedview2"
     pagecolor="#ffffff"
     bordercolor="#666666"
     borderopacity="1.0"
     inkscape:showpageshadow="2"
     inkscape:pageopacity="0.0"
     inkscape:pagecheckerboard="0"
     inkscape:deskcolor="#d1d1d1"
     showgrid="false"><inkscape:page
       x="0"
       y="0"
       width="256"
       height="256"
       id="page2"
       margin="0"
       bleed="0"
       inkscape:export-filename="Page 1.svg"
       inkscape:export-xdpi="96"
       inkscape:export-ydpi="96" /></sodipodi:namedview><defs
     id="defs1"><style
       id="style1">&#10;      .cls-1 {&#10;        fill: #3f3838;&#10;        stroke-width: 0px;&#10;      }&#10;    </style></defs><g
     id="Layer_1-2"
     data-name="Layer 1"
     transform="matrix(1.2681676,0,0,1.2681676,91.546522,59.730193)"><g
       id="g2"><path
         class="cls-1"
         d="m 42.65,42.03 c -0.79,0 -1.51,0.32 -2.16,0.97 l -4.16,4.16 c -0.25,0.25 -0.56,0.45 -0.93,0.59 -0.37,0.15 -0.76,0.22 -1.15,0.22 -0.39,0 -0.78,-0.07 -1.15,-0.22 -0.37,-0.15 -0.68,-0.35 -0.93,-0.59 l -2.75,-2.75 c -0.79,-0.79 -1.72,-1.39 -2.79,-1.78 -1.07,-0.4 -2.19,-0.59 -3.38,-0.59 -1.19,0 -2.33,0.21 -3.42,0.63 -1.09,0.42 -2.03,1.03 -2.83,1.82 l -4.24,4.24 c -0.65,0.64 -0.97,1.36 -0.97,2.16 0,0.84 0.3,1.56 0.89,2.16 0.59,0.6 1.31,0.89 2.16,0.89 0.79,0 1.51,-0.32 2.16,-0.97 l 4.16,-4.16 c 0.25,-0.25 0.56,-0.45 0.93,-0.59 0.37,-0.15 0.76,-0.22 1.15,-0.22 0.39,0 0.78,0.07 1.15,0.22 0.37,0.15 0.68,0.35 0.93,0.59 l 2.75,2.75 c 0.79,0.8 1.72,1.39 2.79,1.78 1.06,0.4 2.19,0.59 3.38,0.59 1.19,0 2.33,-0.21 3.42,-0.63 1.09,-0.42 2.03,-1.03 2.82,-1.82 l 4.24,-4.24 c 0.64,-0.64 0.97,-1.36 0.97,-2.16 0,-0.84 -0.3,-1.56 -0.89,-2.16 -0.59,-0.6 -1.31,-0.89 -2.16,-0.89 z"
         id="path1" /><path
         class="cls-1"
         d="M 54.07,30.83 C 52.02,28.39 48.58,26.27 45.59,25.86 V 16.85 C 45.6,7.56 38.04,0 28.75,0 19.46,0 11.9,7.56 11.9,16.85 v 0.77 c 0,1.64 1.33,2.97 2.97,2.97 1.64,0 2.97,-1.33 2.97,-2.97 v -0.77 c 0,-6.01 4.89,-10.9 10.9,-10.9 6.01,0 10.9,4.89 10.9,10.9 v 8.92 H 12.89 C 9.71,25.77 5.7,28.12 3.42,30.82 1.14,33.53 0,37.13 0,41.63 v 12.69 c 0,4.96 1.39,8.84 4.16,11.65 2.78,2.81 6.68,4.21 11.7,4.21 h 28.13 c 5.02,0 6.56,-1.41 9.34,-4.21 2.78,-2.81 4.16,-6.69 4.16,-11.65 V 41.63 c 0,-4.49 -1.14,-8.09 -3.42,-10.81 z m -2.53,23.49 c 0,3.31 -0.81,5.79 -2.43,7.44 -1.62,1.65 -4.11,2.48 -7.48,2.48 H 15.86 C 12.49,64.24 10,63.41 8.38,61.76 6.76,60.11 5.95,57.63 5.95,54.32 V 41.63 c 0,-3.37 0.83,-5.86 2.48,-7.48 1.65,-1.62 4.13,-2.43 7.43,-2.43 h 25.77 c 3.31,0 5.78,0.81 7.43,2.43 1.65,1.62 2.48,4.11 2.48,7.48 z"
         id="path2" /></g></g></svg>
